<svg width="24" height="26" viewBox="0 0 24 26" fill="none" xmlns="http://www.w3.org/2000/svg">
<path fill-rule="evenodd" clip-rule="evenodd" d="M9.24074 0H14.7592C14.6146 3.02792 14.5162 5.64476 14.4626 8.10459C16.5368 6.83024 18.7225 5.44852 21.2407 3.82816L24 8.71726C21.3373 10.1174 19.0533 11.3494 16.9256 12.5432C19.0546 13.7361 21.3389 14.9687 24 16.3736L21.2407 21.2627C18.719 19.6438 16.5327 18.2624 14.4665 16.9918C14.5216 19.4501 14.6196 22.0653 14.7592 25.0909H9.24074C9.35033 22.0474 9.42663 19.4196 9.46913 16.9539C7.41564 18.2317 5.25078 19.6262 2.75925 21.2627L0 16.3736C2.6046 14.9634 4.84798 13.728 6.93832 12.5439C4.84279 11.3558 2.60147 10.1222 1.05809e-05 8.71724L2.75926 3.82813C5.25024 5.47022 7.41632 6.86584 9.47187 8.14327C9.43018 5.66846 9.35332 3.04122 9.24074 0Z" fill="#fff"/>
</svg>
