<svg width="64" height="26" viewBox="0 0 64 26" fill="none" xmlns="http://www.w3.org/2000/svg">
<g clip-path="url(#clip0)">
<path d="M6.40797 19.08C4.91997 19.08 3.67997 18.816 2.68797 18.288C1.69597 17.76 1.07997 17.16 0.839966 16.488V14.832H4.31997C4.38397 15.12 4.61597 15.392 5.01597 15.648C5.41597 15.904 5.91197 16.032 6.50397 16.032C7.09597 16.032 7.51197 15.944 7.75197 15.768C7.99197 15.592 8.11197 15.376 8.11197 15.12C8.11197 14.848 7.99997 14.632 7.77597 14.472C7.56797 14.312 7.21597 14.208 6.71997 14.16L5.06397 14.016C3.75197 13.904 2.74397 13.536 2.03997 12.912C1.33597 12.272 0.983966 11.376 0.983966 10.224C0.983966 8.928 1.47197 7.904 2.44797 7.152C3.42397 6.384 4.71997 6 6.33597 6C7.80797 6 8.96797 6.248 9.81597 6.744C10.68 7.224 11.24 7.832 11.496 8.568V10.224H8.01597C7.96797 10.016 7.79197 9.768 7.48797 9.48C7.19997 9.192 6.78397 9.048 6.23997 9.048C5.77597 9.048 5.42397 9.136 5.18397 9.312C4.95997 9.488 4.84797 9.712 4.84797 9.984C4.84797 10.24 4.93597 10.448 5.11197 10.608C5.30397 10.752 5.62397 10.848 6.07197 10.896L7.79997 11.088C9.14397 11.232 10.176 11.592 10.896 12.168C11.632 12.728 12 13.6 12 14.784C12 16.064 11.488 17.104 10.464 17.904C9.45597 18.688 8.10397 19.08 6.40797 19.08Z" fill="#fff"/>
<path d="M15.5094 19.08C14.1814 19.08 13.1894 18.704 12.5334 17.952C11.8774 17.2 11.5494 16.304 11.5494 15.264C11.5494 14.048 12.0054 13.104 12.9174 12.432C13.8454 11.744 15.2054 11.4 16.9974 11.4C17.5414 11.4 17.9974 11.432 18.3654 11.496C18.7334 11.56 18.9174 11.592 18.9174 11.592V11.184C18.9174 10.688 18.7814 10.312 18.5094 10.056C18.2534 9.8 17.8694 9.672 17.3574 9.672C17.0374 9.672 16.7654 9.72 16.5414 9.816C16.3334 9.896 16.1654 9.992 16.0374 10.104C15.9094 10.2 15.8214 10.296 15.7734 10.392C15.7254 10.472 15.7014 10.512 15.7014 10.512H12.1974V8.856C12.1974 8.856 12.2694 8.712 12.4134 8.424C12.5574 8.12 12.8214 7.792 13.2054 7.44C13.5894 7.072 14.1174 6.744 14.7894 6.456C15.4774 6.152 16.3494 6 17.4054 6C19.4054 6 20.8934 6.456 21.8694 7.368C22.8614 8.264 23.3574 9.584 23.3574 11.328V18.648H19.2054L19.0134 17.256C18.7094 17.768 18.2774 18.2 17.7174 18.552C17.1574 18.904 16.4214 19.08 15.5094 19.08ZM17.1894 15.744C17.8294 15.744 18.2774 15.576 18.5334 15.24C18.7894 14.888 18.9174 14.536 18.9174 14.184V13.704C18.9174 13.704 18.7734 13.688 18.4854 13.656C18.2134 13.624 17.8534 13.608 17.4054 13.608C16.8614 13.608 16.4774 13.712 16.2534 13.92C16.0294 14.128 15.9174 14.392 15.9174 14.712C15.9174 15.08 16.0374 15.344 16.2774 15.504C16.5174 15.664 16.8214 15.744 17.1894 15.744Z" fill="#fff"/>
<path d="M23.9883 24.648V6.456H28.1883L28.3563 8.088C28.7083 7.464 29.2283 6.96 29.9163 6.576C30.6203 6.192 31.4043 6 32.2683 6C33.1003 6 33.8443 6.176 34.5003 6.528C35.1563 6.864 35.7083 7.328 36.1563 7.92C36.6043 8.496 36.9403 9.184 37.1643 9.984C37.4043 10.768 37.5243 11.608 37.5243 12.504C37.5243 13.432 37.3963 14.304 37.1403 15.12C36.8843 15.92 36.5243 16.616 36.0603 17.208C35.6123 17.784 35.0603 18.24 34.4043 18.576C33.7643 18.912 33.0523 19.08 32.2683 19.08C31.4203 19.08 30.6683 18.92 30.0123 18.6C29.3563 18.264 28.8283 17.784 28.4283 17.16V24.648H23.9883ZM30.7323 15.024C31.4683 15.024 32.0443 14.784 32.4603 14.304C32.8763 13.824 33.0843 13.224 33.0843 12.504C33.0843 11.816 32.8763 11.24 32.4603 10.776C32.0443 10.312 31.4763 10.08 30.7563 10.08C30.0683 10.08 29.5083 10.312 29.0763 10.776C28.6443 11.224 28.4283 11.808 28.4283 12.528C28.4283 13.248 28.6443 13.848 29.0763 14.328C29.5083 14.792 30.0603 15.024 30.7323 15.024Z" fill="#fff"/>
<path d="M37.748 24.648V6.456H41.948L42.116 8.088C42.468 7.464 42.988 6.96 43.676 6.576C44.38 6.192 45.164 6 46.028 6C46.86 6 47.604 6.176 48.26 6.528C48.916 6.864 49.468 7.328 49.916 7.92C50.364 8.496 50.7 9.184 50.924 9.984C51.164 10.768 51.284 11.608 51.284 12.504C51.284 13.432 51.156 14.304 50.9 15.12C50.644 15.92 50.284 16.616 49.82 17.208C49.372 17.784 48.82 18.24 48.164 18.576C47.524 18.912 46.812 19.08 46.028 19.08C45.18 19.08 44.428 18.92 43.772 18.6C43.116 18.264 42.588 17.784 42.188 17.16V24.648H37.748ZM44.492 15.024C45.228 15.024 45.804 14.784 46.22 14.304C46.636 13.824 46.844 13.224 46.844 12.504C46.844 11.816 46.636 11.24 46.22 10.776C45.804 10.312 45.236 10.08 44.516 10.08C43.828 10.08 43.268 10.312 42.836 10.776C42.404 11.224 42.188 11.808 42.188 12.528C42.188 13.248 42.404 13.848 42.836 14.328C43.268 14.792 43.82 15.024 44.492 15.024Z" fill="#fff"/>
<path d="M55.9293 24.648H51.9213V22.968L54.5613 18.072L50.3373 8.136V6.456H54.6573L57.0093 13.08L59.6013 6.456H63.5853V8.112L55.9293 24.648Z" fill="#fff"/>
</g>
<defs>
<clipPath id="clip0">
<rect width="62.7454" height="25.09" fill="white" transform="translate(0.839966)"/>
</clipPath>
</defs>
</svg>
